<svg width="17" height="16" viewBox="0 0 17 16" fill="none" xmlns="http://www.w3.org/2000/svg">
<g clip-path="url(#clip0_2492_21835)">
<path d="M8.40755 15.3337C12.4509 15.3337 15.7409 12.044 15.7409 8.00033C15.7409 7.30238 15.6435 6.61458 15.4505 5.95588C15.3555 5.63197 15.0173 5.44592 14.6925 5.54096C14.3683 5.6357 14.1828 5.97512 14.2776 6.29903C14.4374 6.84629 14.5187 7.4189 14.5187 8.00033C14.5187 11.3699 11.7772 14.1114 8.40755 14.1114C5.03794 14.1114 2.29644 11.3699 2.29644 8.00033C2.29644 4.63071 5.03794 1.88921 8.40755 1.88921C9.63216 1.88921 10.8104 2.24729 11.8148 2.92449C12.0944 3.11323 12.4745 3.03908 12.663 2.75948C12.8515 2.47959 12.778 2.09973 12.4981 1.91115C11.2911 1.09728 9.87669 0.666992 8.40755 0.666992C4.36416 0.666992 1.07422 3.95664 1.07422 8.00033C1.07422 12.044 4.36416 15.3337 8.40755 15.3337Z" fill="#FF3F3A"/>
<path d="M15.2694 1.52885L8.40743 8.3905L6.21212 6.19552C5.9517 5.93526 5.52983 5.93526 5.26941 6.19552C5.00916 6.45593 5.00916 6.87781 5.26941 7.13822L7.93608 9.80489C8.06645 9.93526 8.23669 10.0002 8.40743 10.0002C8.57817 10.0002 8.74841 9.93526 8.87878 9.80489L16.2121 2.47156C16.4724 2.21114 16.4724 1.78927 16.2121 1.52885C15.9517 1.2686 15.5298 1.2686 15.2694 1.52885Z" fill="#FF3F3A"/>
</g>
<defs>
<clipPath id="clip0_2492_21835">
<rect width="16" height="16" fill="white" transform="translate(0.407227)"/>
</clipPath>
</defs>
</svg>
